<mxfile host="65bd71144e">
    <diagram id="t2RLY6Rsk9fh3t6uzkRq" name="Page-1">
        <mxGraphModel dx="2722" dy="916" grid="1" gridSize="10" guides="1" tooltips="1" connect="1" arrows="1" fold="1" page="1" pageScale="1" pageWidth="1100" pageHeight="850" math="0" shadow="0">
            <root>
                <mxCell id="0"/>
                <mxCell id="1" parent="0"/>
                <mxCell id="147" value="exercise" style="swimlane;fontStyle=0;childLayout=stackLayout;horizontal=1;startSize=30;horizontalStack=0;resizeParent=1;resizeParentMax=0;resizeLast=0;collapsible=1;marginBottom=0;whiteSpace=wrap;html=1;swimlaneFillColor=default;" parent="1" vertex="1">
                    <mxGeometry x="-320" y="330" width="140" height="150" as="geometry"/>
                </mxCell>
                <mxCell id="148" value="&lt;font color=&quot;#ffffff&quot;&gt;id&amp;nbsp;&lt;/font&gt;&lt;span style=&quot;color: rgb(255, 255, 255);&quot;&gt;(PK)&lt;/span&gt;" style="text;strokeColor=none;fillColor=none;align=left;verticalAlign=middle;spacingLeft=4;spacingRight=4;overflow=hidden;points=[[0,0.5],[1,0.5]];portConstraint=eastwest;rotatable=0;whiteSpace=wrap;html=1;fontColor=#5C5C5C;" parent="147" vertex="1">
                    <mxGeometry y="30" width="140" height="30" as="geometry"/>
                </mxCell>
                <mxCell id="149" value="&lt;font color=&quot;#ffffff&quot;&gt;name&lt;/font&gt;" style="text;strokeColor=none;fillColor=none;align=left;verticalAlign=middle;spacingLeft=4;spacingRight=4;overflow=hidden;points=[[0,0.5],[1,0.5]];portConstraint=eastwest;rotatable=0;whiteSpace=wrap;html=1;fontColor=#5C5C5C;" parent="147" vertex="1">
                    <mxGeometry y="60" width="140" height="30" as="geometry"/>
                </mxCell>
                <mxCell id="151" value="&lt;font color=&quot;#ffffff&quot;&gt;description&lt;/font&gt;" style="text;strokeColor=none;fillColor=none;align=left;verticalAlign=middle;spacingLeft=4;spacingRight=4;overflow=hidden;points=[[0,0.5],[1,0.5]];portConstraint=eastwest;rotatable=0;whiteSpace=wrap;html=1;fontColor=#5C5C5C;" parent="147" vertex="1">
                    <mxGeometry y="90" width="140" height="30" as="geometry"/>
                </mxCell>
                <mxCell id="272" value="&lt;font color=&quot;#ffffff&quot;&gt;goal&lt;/font&gt;" style="text;strokeColor=none;fillColor=none;align=left;verticalAlign=middle;spacingLeft=4;spacingRight=4;overflow=hidden;points=[[0,0.5],[1,0.5]];portConstraint=eastwest;rotatable=0;whiteSpace=wrap;html=1;fontColor=#5C5C5C;" parent="147" vertex="1">
                    <mxGeometry y="120" width="140" height="30" as="geometry"/>
                </mxCell>
                <mxCell id="274" style="edgeStyle=none;html=1;fontColor=#FFFFFF;" parent="1" source="154" target="258" edge="1">
                    <mxGeometry relative="1" as="geometry"/>
                </mxCell>
                <mxCell id="154" value="prog_exercise" style="swimlane;fontStyle=0;childLayout=stackLayout;horizontal=1;startSize=30;horizontalStack=0;resizeParent=1;resizeParentMax=0;resizeLast=0;collapsible=1;marginBottom=0;whiteSpace=wrap;html=1;swimlaneFillColor=default;" parent="1" vertex="1">
                    <mxGeometry x="-510" y="280" width="140" height="180" as="geometry"/>
                </mxCell>
                <mxCell id="281" value="&lt;font color=&quot;#ffffff&quot;&gt;id (PK)&lt;/font&gt;" style="text;strokeColor=none;fillColor=none;align=left;verticalAlign=middle;spacingLeft=4;spacingRight=4;overflow=hidden;points=[[0,0.5],[1,0.5]];portConstraint=eastwest;rotatable=0;whiteSpace=wrap;html=1;fontColor=#5C5C5C;" parent="154" vertex="1">
                    <mxGeometry y="30" width="140" height="30" as="geometry"/>
                </mxCell>
                <mxCell id="256" value="&lt;font color=&quot;#ffffff&quot;&gt;exercise_id (FK)&lt;/font&gt;" style="text;strokeColor=none;fillColor=none;align=left;verticalAlign=middle;spacingLeft=4;spacingRight=4;overflow=hidden;points=[[0,0.5],[1,0.5]];portConstraint=eastwest;rotatable=0;whiteSpace=wrap;html=1;fontColor=#5C5C5C;" parent="154" vertex="1">
                    <mxGeometry y="60" width="140" height="30" as="geometry"/>
                </mxCell>
                <mxCell id="275" value="&lt;font color=&quot;#ffffff&quot;&gt;created_by (FK)&lt;/font&gt;" style="text;strokeColor=none;fillColor=none;align=left;verticalAlign=middle;spacingLeft=4;spacingRight=4;overflow=hidden;points=[[0,0.5],[1,0.5]];portConstraint=eastwest;rotatable=0;whiteSpace=wrap;html=1;fontColor=#5C5C5C;" parent="154" vertex="1">
                    <mxGeometry y="90" width="140" height="30" as="geometry"/>
                </mxCell>
                <mxCell id="347" value="&lt;font color=&quot;#ffffff&quot;&gt;note&lt;/font&gt;" style="text;strokeColor=none;fillColor=none;align=left;verticalAlign=middle;spacingLeft=4;spacingRight=4;overflow=hidden;points=[[0,0.5],[1,0.5]];portConstraint=eastwest;rotatable=0;whiteSpace=wrap;html=1;fontColor=#5C5C5C;" vertex="1" parent="154">
                    <mxGeometry y="120" width="140" height="30" as="geometry"/>
                </mxCell>
                <mxCell id="271" value="&lt;font color=&quot;#ffffff&quot;&gt;visibility&lt;/font&gt;" style="text;strokeColor=none;fillColor=none;align=left;verticalAlign=middle;spacingLeft=4;spacingRight=4;overflow=hidden;points=[[0,0.5],[1,0.5]];portConstraint=eastwest;rotatable=0;whiteSpace=wrap;html=1;fontColor=#5C5C5C;" parent="154" vertex="1">
                    <mxGeometry y="150" width="140" height="30" as="geometry"/>
                </mxCell>
                <mxCell id="159" value="session" style="swimlane;fontStyle=0;childLayout=stackLayout;horizontal=1;startSize=30;horizontalStack=0;resizeParent=1;resizeParentMax=0;resizeLast=0;collapsible=1;marginBottom=0;whiteSpace=wrap;html=1;swimlaneFillColor=default;" parent="1" vertex="1">
                    <mxGeometry x="-840" y="625" width="140" height="210" as="geometry"/>
                </mxCell>
                <mxCell id="160" value="&lt;font color=&quot;#ffffff&quot;&gt;id (PK)&lt;/font&gt;" style="text;strokeColor=none;fillColor=none;align=left;verticalAlign=middle;spacingLeft=4;spacingRight=4;overflow=hidden;points=[[0,0.5],[1,0.5]];portConstraint=eastwest;rotatable=0;whiteSpace=wrap;html=1;fontColor=#5C5C5C;" parent="159" vertex="1">
                    <mxGeometry y="30" width="140" height="30" as="geometry"/>
                </mxCell>
                <mxCell id="162" value="&lt;font color=&quot;#ffffff&quot;&gt;session_type_id (FK)&lt;/font&gt;" style="text;strokeColor=none;fillColor=none;align=left;verticalAlign=middle;spacingLeft=4;spacingRight=4;overflow=hidden;points=[[0,0.5],[1,0.5]];portConstraint=eastwest;rotatable=0;whiteSpace=wrap;html=1;fontColor=#5C5C5C;" parent="159" vertex="1">
                    <mxGeometry y="60" width="140" height="30" as="geometry"/>
                </mxCell>
                <mxCell id="307" value="&lt;font color=&quot;#ffffff&quot;&gt;created_by (FK)&lt;/font&gt;" style="text;strokeColor=none;fillColor=none;align=left;verticalAlign=middle;spacingLeft=4;spacingRight=4;overflow=hidden;points=[[0,0.5],[1,0.5]];portConstraint=eastwest;rotatable=0;whiteSpace=wrap;html=1;fontColor=#5C5C5C;" parent="159" vertex="1">
                    <mxGeometry y="90" width="140" height="30" as="geometry"/>
                </mxCell>
                <mxCell id="161" value="&lt;font color=&quot;#ffffff&quot;&gt;name&lt;/font&gt;" style="text;strokeColor=none;fillColor=none;align=left;verticalAlign=middle;spacingLeft=4;spacingRight=4;overflow=hidden;points=[[0,0.5],[1,0.5]];portConstraint=eastwest;rotatable=0;whiteSpace=wrap;html=1;fontColor=#5C5C5C;" parent="159" vertex="1">
                    <mxGeometry y="120" width="140" height="30" as="geometry"/>
                </mxCell>
                <mxCell id="163" value="&lt;font color=&quot;#ffffff&quot;&gt;description&lt;/font&gt;" style="text;strokeColor=none;fillColor=none;align=left;verticalAlign=middle;spacingLeft=4;spacingRight=4;overflow=hidden;points=[[0,0.5],[1,0.5]];portConstraint=eastwest;rotatable=0;whiteSpace=wrap;html=1;fontColor=#5C5C5C;" parent="159" vertex="1">
                    <mxGeometry y="150" width="140" height="30" as="geometry"/>
                </mxCell>
                <mxCell id="296" value="&lt;font color=&quot;#ffffff&quot;&gt;visibility&lt;/font&gt;" style="text;strokeColor=none;fillColor=none;align=left;verticalAlign=middle;spacingLeft=4;spacingRight=4;overflow=hidden;points=[[0,0.5],[1,0.5]];portConstraint=eastwest;rotatable=0;whiteSpace=wrap;html=1;fontColor=#5C5C5C;" parent="159" vertex="1">
                    <mxGeometry y="180" width="140" height="30" as="geometry"/>
                </mxCell>
                <mxCell id="164" value="solicited_muscle" style="swimlane;fontStyle=0;childLayout=stackLayout;horizontal=1;startSize=30;horizontalStack=0;resizeParent=1;resizeParentMax=0;resizeLast=0;collapsible=1;marginBottom=0;whiteSpace=wrap;html=1;swimlaneFillColor=default;" parent="1" vertex="1">
                    <mxGeometry x="-320" y="520" width="140" height="90" as="geometry"/>
                </mxCell>
                <mxCell id="165" value="&lt;font color=&quot;#ffffff&quot;&gt;exercise_id&amp;nbsp;&lt;/font&gt;&lt;span style=&quot;color: rgb(255, 255, 255);&quot;&gt;(FK)&lt;/span&gt;" style="text;strokeColor=none;fillColor=none;align=left;verticalAlign=middle;spacingLeft=4;spacingRight=4;overflow=hidden;points=[[0,0.5],[1,0.5]];portConstraint=eastwest;rotatable=0;whiteSpace=wrap;html=1;fontColor=#5C5C5C;" parent="164" vertex="1">
                    <mxGeometry y="30" width="140" height="30" as="geometry"/>
                </mxCell>
                <mxCell id="166" value="&lt;font color=&quot;#ffffff&quot;&gt;muscle_id&amp;nbsp;&lt;/font&gt;&lt;span style=&quot;color: rgb(255, 255, 255);&quot;&gt;(FK)&lt;/span&gt;" style="text;strokeColor=none;fillColor=none;align=left;verticalAlign=middle;spacingLeft=4;spacingRight=4;overflow=hidden;points=[[0,0.5],[1,0.5]];portConstraint=eastwest;rotatable=0;whiteSpace=wrap;html=1;fontColor=#5C5C5C;" parent="164" vertex="1">
                    <mxGeometry y="60" width="140" height="30" as="geometry"/>
                </mxCell>
                <mxCell id="171" value="muscle" style="swimlane;fontStyle=0;childLayout=stackLayout;horizontal=1;startSize=30;horizontalStack=0;resizeParent=1;resizeParentMax=0;resizeLast=0;collapsible=1;marginBottom=0;whiteSpace=wrap;html=1;swimlaneFillColor=default;" parent="1" vertex="1">
                    <mxGeometry x="-150" y="490" width="140" height="150" as="geometry"/>
                </mxCell>
                <mxCell id="172" value="&lt;font color=&quot;#ffffff&quot;&gt;id&amp;nbsp;&lt;/font&gt;&lt;span style=&quot;color: rgb(255, 255, 255);&quot;&gt;(PK)&lt;/span&gt;" style="text;strokeColor=none;fillColor=none;align=left;verticalAlign=middle;spacingLeft=4;spacingRight=4;overflow=hidden;points=[[0,0.5],[1,0.5]];portConstraint=eastwest;rotatable=0;whiteSpace=wrap;html=1;fontColor=#5C5C5C;" parent="171" vertex="1">
                    <mxGeometry y="30" width="140" height="30" as="geometry"/>
                </mxCell>
                <mxCell id="173" value="&lt;font color=&quot;#ffffff&quot;&gt;name&lt;/font&gt;" style="text;strokeColor=none;fillColor=none;align=left;verticalAlign=middle;spacingLeft=4;spacingRight=4;overflow=hidden;points=[[0,0.5],[1,0.5]];portConstraint=eastwest;rotatable=0;whiteSpace=wrap;html=1;fontColor=#5C5C5C;" parent="171" vertex="1">
                    <mxGeometry y="60" width="140" height="30" as="geometry"/>
                </mxCell>
                <mxCell id="249" value="&lt;font style=&quot;&quot; color=&quot;#ffffff&quot;&gt;description&lt;/font&gt;" style="text;strokeColor=none;fillColor=none;align=left;verticalAlign=middle;spacingLeft=4;spacingRight=4;overflow=hidden;points=[[0,0.5],[1,0.5]];portConstraint=eastwest;rotatable=0;whiteSpace=wrap;html=1;fontColor=#5C5C5C;" parent="171" vertex="1">
                    <mxGeometry y="90" width="140" height="30" as="geometry"/>
                </mxCell>
                <mxCell id="330" value="&lt;font style=&quot;&quot; color=&quot;#ffffff&quot;&gt;function&lt;/font&gt;" style="text;strokeColor=none;fillColor=none;align=left;verticalAlign=middle;spacingLeft=4;spacingRight=4;overflow=hidden;points=[[0,0.5],[1,0.5]];portConstraint=eastwest;rotatable=0;whiteSpace=wrap;html=1;fontColor=#5C5C5C;" parent="171" vertex="1">
                    <mxGeometry y="120" width="140" height="30" as="geometry"/>
                </mxCell>
                <mxCell id="283" style="edgeStyle=none;html=1;fontColor=#FFFFFF;" parent="1" source="193" target="258" edge="1">
                    <mxGeometry relative="1" as="geometry"/>
                </mxCell>
                <mxCell id="193" value="program" style="swimlane;fontStyle=0;childLayout=stackLayout;horizontal=1;startSize=30;horizontalStack=0;resizeParent=1;resizeParentMax=0;resizeLast=0;collapsible=1;marginBottom=0;whiteSpace=wrap;html=1;swimlaneFillColor=default;" parent="1" vertex="1">
                    <mxGeometry x="-1085" y="265" width="140" height="210" as="geometry"/>
                </mxCell>
                <mxCell id="194" value="&lt;font color=&quot;#ffffff&quot;&gt;id (PK)&lt;/font&gt;" style="text;strokeColor=none;fillColor=none;align=left;verticalAlign=middle;spacingLeft=4;spacingRight=4;overflow=hidden;points=[[0,0.5],[1,0.5]];portConstraint=eastwest;rotatable=0;whiteSpace=wrap;html=1;fontColor=#5C5C5C;" parent="193" vertex="1">
                    <mxGeometry y="30" width="140" height="30" as="geometry"/>
                </mxCell>
                <mxCell id="309" value="&lt;font color=&quot;#ffffff&quot;&gt;created_by (FK)&lt;/font&gt;" style="text;strokeColor=none;fillColor=none;align=left;verticalAlign=middle;spacingLeft=4;spacingRight=4;overflow=hidden;points=[[0,0.5],[1,0.5]];portConstraint=eastwest;rotatable=0;whiteSpace=wrap;html=1;fontColor=#5C5C5C;" parent="193" vertex="1">
                    <mxGeometry y="60" width="140" height="30" as="geometry"/>
                </mxCell>
                <mxCell id="310" value="&lt;font color=&quot;#ffffff&quot;&gt;taken_from (FK)&lt;/font&gt;" style="text;strokeColor=none;fillColor=none;align=left;verticalAlign=middle;spacingLeft=4;spacingRight=4;overflow=hidden;points=[[0,0.5],[1,0.5]];portConstraint=eastwest;rotatable=0;whiteSpace=wrap;html=1;fontColor=#5C5C5C;" parent="193" vertex="1">
                    <mxGeometry y="90" width="140" height="30" as="geometry"/>
                </mxCell>
                <mxCell id="195" value="&lt;font color=&quot;#ffffff&quot;&gt;name&lt;/font&gt;" style="text;strokeColor=none;fillColor=none;align=left;verticalAlign=middle;spacingLeft=4;spacingRight=4;overflow=hidden;points=[[0,0.5],[1,0.5]];portConstraint=eastwest;rotatable=0;whiteSpace=wrap;html=1;fontColor=#5C5C5C;" parent="193" vertex="1">
                    <mxGeometry y="120" width="140" height="30" as="geometry"/>
                </mxCell>
                <mxCell id="196" value="&lt;font color=&quot;#ffffff&quot;&gt;description&lt;/font&gt;" style="text;strokeColor=none;fillColor=none;align=left;verticalAlign=middle;spacingLeft=4;spacingRight=4;overflow=hidden;points=[[0,0.5],[1,0.5]];portConstraint=eastwest;rotatable=0;whiteSpace=wrap;html=1;fontColor=#5C5C5C;" parent="193" vertex="1">
                    <mxGeometry y="150" width="140" height="30" as="geometry"/>
                </mxCell>
                <mxCell id="297" value="&lt;font color=&quot;#ffffff&quot;&gt;visibility&lt;/font&gt;" style="text;strokeColor=none;fillColor=none;align=left;verticalAlign=middle;spacingLeft=4;spacingRight=4;overflow=hidden;points=[[0,0.5],[1,0.5]];portConstraint=eastwest;rotatable=0;whiteSpace=wrap;html=1;fontColor=#5C5C5C;" parent="193" vertex="1">
                    <mxGeometry y="180" width="140" height="30" as="geometry"/>
                </mxCell>
                <mxCell id="241" style="edgeStyle=none;html=1;fontColor=#FFFFFF;" parent="1" source="159" target="140" edge="1">
                    <mxGeometry relative="1" as="geometry">
                        <mxPoint x="-795" y="425" as="targetPoint"/>
                    </mxGeometry>
                </mxCell>
                <mxCell id="244" style="edgeStyle=none;html=1;fontColor=#FFFFFF;" parent="1" source="154" target="147" edge="1">
                    <mxGeometry relative="1" as="geometry">
                        <mxPoint x="-305" y="685" as="sourcePoint"/>
                    </mxGeometry>
                </mxCell>
                <mxCell id="245" style="edgeStyle=none;html=1;fontColor=#FFFFFF;" parent="1" source="164" target="147" edge="1">
                    <mxGeometry relative="1" as="geometry">
                        <mxPoint x="-230" y="410" as="targetPoint"/>
                    </mxGeometry>
                </mxCell>
                <mxCell id="246" style="edgeStyle=none;html=1;fontColor=#FFFFFF;" parent="1" source="164" target="171" edge="1">
                    <mxGeometry relative="1" as="geometry"/>
                </mxCell>
                <mxCell id="250" value="classified_exercise" style="swimlane;fontStyle=0;childLayout=stackLayout;horizontal=1;startSize=30;horizontalStack=0;resizeParent=1;resizeParentMax=0;resizeLast=0;collapsible=1;marginBottom=0;whiteSpace=wrap;html=1;swimlaneFillColor=default;" parent="1" vertex="1">
                    <mxGeometry x="-320" y="180" width="140" height="90" as="geometry"/>
                </mxCell>
                <mxCell id="252" value="&lt;font color=&quot;#ffffff&quot;&gt;exercise_id (FK)&lt;/font&gt;" style="text;strokeColor=none;fillColor=none;align=left;verticalAlign=middle;spacingLeft=4;spacingRight=4;overflow=hidden;points=[[0,0.5],[1,0.5]];portConstraint=eastwest;rotatable=0;whiteSpace=wrap;html=1;fontColor=#5C5C5C;" parent="250" vertex="1">
                    <mxGeometry y="30" width="140" height="30" as="geometry"/>
                </mxCell>
                <mxCell id="253" value="&lt;span style=&quot;color: rgb(255, 255, 255);&quot;&gt;exercise_type_id (FK)&lt;/span&gt;" style="text;strokeColor=none;fillColor=none;align=left;verticalAlign=middle;spacingLeft=4;spacingRight=4;overflow=hidden;points=[[0,0.5],[1,0.5]];portConstraint=eastwest;rotatable=0;whiteSpace=wrap;html=1;fontColor=#5C5C5C;" parent="250" vertex="1">
                    <mxGeometry y="60" width="140" height="30" as="geometry"/>
                </mxCell>
                <mxCell id="255" style="edgeStyle=none;html=1;fontColor=#FFFFFF;" parent="1" source="250" target="263" edge="1">
                    <mxGeometry relative="1" as="geometry">
                        <mxPoint x="-325" y="410" as="sourcePoint"/>
                    </mxGeometry>
                </mxCell>
                <mxCell id="258" value="user" style="swimlane;fontStyle=0;childLayout=stackLayout;horizontal=1;startSize=30;horizontalStack=0;resizeParent=1;resizeParentMax=0;resizeLast=0;collapsible=1;marginBottom=0;whiteSpace=wrap;html=1;swimlaneFillColor=default;" parent="1" vertex="1">
                    <mxGeometry x="-840" y="250" width="140" height="240" as="geometry"/>
                </mxCell>
                <mxCell id="259" value="&lt;font color=&quot;#ffffff&quot;&gt;id (PK)&lt;/font&gt;" style="text;strokeColor=none;fillColor=none;align=left;verticalAlign=middle;spacingLeft=4;spacingRight=4;overflow=hidden;points=[[0,0.5],[1,0.5]];portConstraint=eastwest;rotatable=0;whiteSpace=wrap;html=1;fontColor=#5C5C5C;" parent="258" vertex="1">
                    <mxGeometry y="30" width="140" height="30" as="geometry"/>
                </mxCell>
                <mxCell id="277" value="&lt;font color=&quot;#ffffff&quot;&gt;password&lt;/font&gt;" style="text;strokeColor=none;fillColor=none;align=left;verticalAlign=middle;spacingLeft=4;spacingRight=4;overflow=hidden;points=[[0,0.5],[1,0.5]];portConstraint=eastwest;rotatable=0;whiteSpace=wrap;html=1;fontColor=#5C5C5C;" parent="258" vertex="1">
                    <mxGeometry y="60" width="140" height="30" as="geometry"/>
                </mxCell>
                <mxCell id="278" value="&lt;font color=&quot;#ffffff&quot;&gt;email&lt;/font&gt;" style="text;strokeColor=none;fillColor=none;align=left;verticalAlign=middle;spacingLeft=4;spacingRight=4;overflow=hidden;points=[[0,0.5],[1,0.5]];portConstraint=eastwest;rotatable=0;whiteSpace=wrap;html=1;fontColor=#5C5C5C;" parent="258" vertex="1">
                    <mxGeometry y="90" width="140" height="30" as="geometry"/>
                </mxCell>
                <mxCell id="260" value="&lt;font color=&quot;#ffffff&quot;&gt;name&lt;/font&gt;" style="text;strokeColor=none;fillColor=none;align=left;verticalAlign=middle;spacingLeft=4;spacingRight=4;overflow=hidden;points=[[0,0.5],[1,0.5]];portConstraint=eastwest;rotatable=0;whiteSpace=wrap;html=1;fontColor=#5C5C5C;" parent="258" vertex="1">
                    <mxGeometry y="120" width="140" height="30" as="geometry"/>
                </mxCell>
                <mxCell id="261" value="&lt;font color=&quot;#ffffff&quot;&gt;surname&lt;/font&gt;" style="text;strokeColor=none;fillColor=none;align=left;verticalAlign=middle;spacingLeft=4;spacingRight=4;overflow=hidden;points=[[0,0.5],[1,0.5]];portConstraint=eastwest;rotatable=0;whiteSpace=wrap;html=1;fontColor=#5C5C5C;" parent="258" vertex="1">
                    <mxGeometry y="150" width="140" height="30" as="geometry"/>
                </mxCell>
                <mxCell id="276" value="&lt;font color=&quot;#ffffff&quot;&gt;avatar&lt;/font&gt;" style="text;strokeColor=none;fillColor=none;align=left;verticalAlign=middle;spacingLeft=4;spacingRight=4;overflow=hidden;points=[[0,0.5],[1,0.5]];portConstraint=eastwest;rotatable=0;whiteSpace=wrap;html=1;fontColor=#5C5C5C;" parent="258" vertex="1">
                    <mxGeometry y="180" width="140" height="30" as="geometry"/>
                </mxCell>
                <mxCell id="311" value="&lt;font color=&quot;#ffffff&quot;&gt;rank&lt;/font&gt;" style="text;strokeColor=none;fillColor=none;align=left;verticalAlign=middle;spacingLeft=4;spacingRight=4;overflow=hidden;points=[[0,0.5],[1,0.5]];portConstraint=eastwest;rotatable=0;whiteSpace=wrap;html=1;fontColor=#5C5C5C;" parent="258" vertex="1">
                    <mxGeometry y="210" width="140" height="30" as="geometry"/>
                </mxCell>
                <mxCell id="263" value="exercice_type" style="swimlane;fontStyle=0;childLayout=stackLayout;horizontal=1;startSize=30;horizontalStack=0;resizeParent=1;resizeParentMax=0;resizeLast=0;collapsible=1;marginBottom=0;whiteSpace=wrap;html=1;swimlaneFillColor=default;" parent="1" vertex="1">
                    <mxGeometry x="-150" y="165" width="140" height="120" as="geometry">
                        <mxRectangle x="280" y="640" width="110" height="30" as="alternateBounds"/>
                    </mxGeometry>
                </mxCell>
                <mxCell id="264" value="&lt;font color=&quot;#ffffff&quot;&gt;id&amp;nbsp;&lt;/font&gt;&lt;span style=&quot;color: rgb(255, 255, 255);&quot;&gt;(PK)&lt;/span&gt;" style="text;strokeColor=none;fillColor=none;align=left;verticalAlign=middle;spacingLeft=4;spacingRight=4;overflow=hidden;points=[[0,0.5],[1,0.5]];portConstraint=eastwest;rotatable=0;whiteSpace=wrap;html=1;fontColor=#5C5C5C;" parent="263" vertex="1">
                    <mxGeometry y="30" width="140" height="30" as="geometry"/>
                </mxCell>
                <mxCell id="265" value="&lt;font color=&quot;#ffffff&quot;&gt;name&lt;/font&gt;" style="text;strokeColor=none;fillColor=none;align=left;verticalAlign=middle;spacingLeft=4;spacingRight=4;overflow=hidden;points=[[0,0.5],[1,0.5]];portConstraint=eastwest;rotatable=0;whiteSpace=wrap;html=1;fontColor=#5C5C5C;" parent="263" vertex="1">
                    <mxGeometry y="60" width="140" height="30" as="geometry"/>
                </mxCell>
                <mxCell id="266" value="&lt;font color=&quot;#ffffff&quot;&gt;goal&lt;/font&gt;" style="text;strokeColor=none;fillColor=none;align=left;verticalAlign=middle;spacingLeft=4;spacingRight=4;overflow=hidden;points=[[0,0.5],[1,0.5]];portConstraint=eastwest;rotatable=0;whiteSpace=wrap;html=1;fontColor=#5C5C5C;" parent="263" vertex="1">
                    <mxGeometry y="90" width="140" height="30" as="geometry"/>
                </mxCell>
                <mxCell id="267" style="edgeStyle=none;html=1;fontColor=#FFFFFF;" parent="1" source="250" target="147" edge="1">
                    <mxGeometry relative="1" as="geometry"/>
                </mxCell>
                <mxCell id="268" value="Un exercice peut soliciter plusieurs muscles" style="rounded=1;whiteSpace=wrap;html=1;labelBackgroundColor=none;fontColor=#FFFFFF;fillColor=#504361;" parent="1" vertex="1">
                    <mxGeometry x="-280" y="670" width="250" height="30" as="geometry"/>
                </mxCell>
                <mxCell id="269" value="&lt;div style=&quot;line-height: 120%;&quot;&gt;&lt;span style=&quot;background-color: initial;&quot;&gt;Un exercice peut avoir plusieur type (cardio, équilibre, étirement, muscu). Ex:&amp;nbsp;&lt;br&gt;&lt;/span&gt;&lt;span style=&quot;background-color: initial;&quot;&gt;&amp;nbsp;pompes en poirié (l'équilibre &amp;amp; musculation)&lt;/span&gt;&lt;/div&gt;" style="rounded=1;whiteSpace=wrap;html=1;labelBackgroundColor=none;fontColor=#FFFFFF;fillColor=#504361;align=left;" parent="1" vertex="1">
                    <mxGeometry x="-290" y="80" width="260" height="60" as="geometry"/>
                </mxCell>
                <mxCell id="289" style="edgeStyle=none;html=1;fontColor=#FFFFFF;" parent="1" source="285" target="154" edge="1">
                    <mxGeometry relative="1" as="geometry">
                        <mxPoint x="-539.1176470588234" y="605" as="targetPoint"/>
                    </mxGeometry>
                </mxCell>
                <mxCell id="285" value="prog_exercise_session" style="swimlane;fontStyle=0;childLayout=stackLayout;horizontal=1;startSize=30;horizontalStack=0;resizeParent=1;resizeParentMax=0;resizeLast=0;collapsible=1;marginBottom=0;whiteSpace=wrap;html=1;swimlaneFillColor=default;" parent="1" vertex="1">
                    <mxGeometry x="-510" y="685" width="140" height="90" as="geometry"/>
                </mxCell>
                <mxCell id="291" value="&lt;span style=&quot;color: rgb(240, 240, 240); text-align: center;&quot;&gt;session_id&amp;nbsp;&lt;/span&gt;&lt;font color=&quot;#ffffff&quot;&gt;(FK)&lt;/font&gt;" style="text;strokeColor=none;fillColor=none;align=left;verticalAlign=middle;spacingLeft=4;spacingRight=4;overflow=hidden;points=[[0,0.5],[1,0.5]];portConstraint=eastwest;rotatable=0;whiteSpace=wrap;html=1;fontColor=#5C5C5C;" parent="285" vertex="1">
                    <mxGeometry y="30" width="140" height="30" as="geometry"/>
                </mxCell>
                <mxCell id="292" value="&lt;span style=&quot;color: rgb(240, 240, 240); text-align: center;&quot;&gt;prog_exercise&lt;/span&gt;&lt;span style=&quot;color: rgb(255, 255, 255);&quot;&gt;_id&amp;nbsp;&lt;/span&gt;&lt;font color=&quot;#ffffff&quot;&gt;(FK)&lt;/font&gt;" style="text;strokeColor=none;fillColor=none;align=left;verticalAlign=middle;spacingLeft=4;spacingRight=4;overflow=hidden;points=[[0,0.5],[1,0.5]];portConstraint=eastwest;rotatable=0;whiteSpace=wrap;html=1;fontColor=#5C5C5C;" parent="285" vertex="1">
                    <mxGeometry y="60" width="140" height="30" as="geometry"/>
                </mxCell>
                <mxCell id="290" style="edgeStyle=none;html=1;fontColor=#FFFFFF;" parent="1" source="285" target="159" edge="1">
                    <mxGeometry relative="1" as="geometry"/>
                </mxCell>
                <mxCell id="293" value="&lt;div style=&quot;&quot;&gt;&lt;span style=&quot;background-color: initial;&quot;&gt;Un exercice programé peut se retrouver dans plusieurs session. Ex; gainage, étirement&lt;/span&gt;&lt;/div&gt;" style="rounded=1;whiteSpace=wrap;html=1;labelBackgroundColor=none;fontColor=#FFFFFF;fillColor=#504361;align=left;" parent="1" vertex="1">
                    <mxGeometry x="-590" y="790" width="280" height="45" as="geometry"/>
                </mxCell>
                <mxCell id="140" value="session_type" style="swimlane;fontStyle=0;childLayout=stackLayout;horizontal=1;startSize=30;horizontalStack=0;resizeParent=1;resizeParentMax=0;resizeLast=0;collapsible=1;marginBottom=0;whiteSpace=wrap;html=1;swimlaneFillColor=default;" parent="1" vertex="1">
                    <mxGeometry x="-1085" y="665" width="140" height="120" as="geometry"/>
                </mxCell>
                <mxCell id="141" value="&lt;font color=&quot;#ffffff&quot;&gt;id (PK)&lt;/font&gt;" style="text;strokeColor=none;fillColor=none;align=left;verticalAlign=middle;spacingLeft=4;spacingRight=4;overflow=hidden;points=[[0,0.5],[1,0.5]];portConstraint=eastwest;rotatable=0;whiteSpace=wrap;html=1;fontColor=#5C5C5C;" parent="140" vertex="1">
                    <mxGeometry y="30" width="140" height="30" as="geometry"/>
                </mxCell>
                <mxCell id="142" value="&lt;font color=&quot;#ffffff&quot;&gt;type&lt;/font&gt;" style="text;strokeColor=none;fillColor=none;align=left;verticalAlign=middle;spacingLeft=4;spacingRight=4;overflow=hidden;points=[[0,0.5],[1,0.5]];portConstraint=eastwest;rotatable=0;whiteSpace=wrap;html=1;fontColor=#5C5C5C;" parent="140" vertex="1">
                    <mxGeometry y="60" width="140" height="30" as="geometry"/>
                </mxCell>
                <mxCell id="146" value="&lt;font color=&quot;#ffffff&quot;&gt;description&lt;/font&gt;" style="text;strokeColor=none;fillColor=none;align=left;verticalAlign=middle;spacingLeft=4;spacingRight=4;overflow=hidden;points=[[0,0.5],[1,0.5]];portConstraint=eastwest;rotatable=0;whiteSpace=wrap;html=1;fontColor=#5C5C5C;" parent="140" vertex="1">
                    <mxGeometry y="90" width="140" height="30" as="geometry"/>
                </mxCell>
                <mxCell id="304" value="&lt;h1&gt;SportsPeak MPD :&lt;/h1&gt;&lt;div&gt;MPD d'une application de gestion de programme d'entraînement sportif, permettant la création de session (ex : push, pull, leg) contenant des exercices dont la programmation peut être personnalisée.&lt;/div&gt;" style="text;html=1;strokeColor=none;fillColor=none;spacing=5;spacingTop=-20;whiteSpace=wrap;overflow=hidden;rounded=0;labelBackgroundColor=none;fontColor=#FFFFFF;" parent="1" vertex="1">
                    <mxGeometry x="-1085" y="30" width="235" height="110" as="geometry"/>
                </mxCell>
                <mxCell id="316" style="edgeStyle=none;html=1;exitX=0.5;exitY=0;exitDx=0;exitDy=0;" parent="1" source="313" target="258" edge="1">
                    <mxGeometry relative="1" as="geometry"/>
                </mxCell>
                <mxCell id="317" style="edgeStyle=none;html=1;" parent="1" source="313" target="159" edge="1">
                    <mxGeometry relative="1" as="geometry"/>
                </mxCell>
                <mxCell id="313" value="user_session" style="swimlane;fontStyle=0;childLayout=stackLayout;horizontal=1;startSize=30;horizontalStack=0;resizeParent=1;resizeParentMax=0;resizeLast=0;collapsible=1;marginBottom=0;whiteSpace=wrap;html=1;swimlaneFillColor=default;" parent="1" vertex="1">
                    <mxGeometry x="-840" y="510" width="140" height="90" as="geometry"/>
                </mxCell>
                <mxCell id="314" value="&lt;span style=&quot;color: rgb(240, 240, 240); text-align: center;&quot;&gt;user_id&amp;nbsp;&lt;/span&gt;&lt;font color=&quot;#ffffff&quot;&gt;(FK)&lt;/font&gt;" style="text;strokeColor=none;fillColor=none;align=left;verticalAlign=middle;spacingLeft=4;spacingRight=4;overflow=hidden;points=[[0,0.5],[1,0.5]];portConstraint=eastwest;rotatable=0;whiteSpace=wrap;html=1;fontColor=#5C5C5C;" parent="313" vertex="1">
                    <mxGeometry y="30" width="140" height="30" as="geometry"/>
                </mxCell>
                <mxCell id="315" value="&lt;div style=&quot;text-align: center;&quot;&gt;&lt;span style=&quot;background-color: initial;&quot;&gt;&lt;font color=&quot;#f0f0f0&quot;&gt;session_id&amp;nbsp;&lt;/font&gt;&lt;/span&gt;&lt;span style=&quot;color: rgb(255, 255, 255); background-color: initial;&quot;&gt;(FK)&lt;/span&gt;&lt;/div&gt;" style="text;strokeColor=none;fillColor=none;align=left;verticalAlign=middle;spacingLeft=4;spacingRight=4;overflow=hidden;points=[[0,0.5],[1,0.5]];portConstraint=eastwest;rotatable=0;whiteSpace=wrap;html=1;fontColor=#5C5C5C;" parent="313" vertex="1">
                    <mxGeometry y="60" width="140" height="30" as="geometry"/>
                </mxCell>
                <mxCell id="321" style="edgeStyle=none;html=1;" parent="1" source="318" target="159" edge="1">
                    <mxGeometry relative="1" as="geometry"/>
                </mxCell>
                <mxCell id="322" style="edgeStyle=none;html=1;" parent="1" source="318" target="193" edge="1">
                    <mxGeometry relative="1" as="geometry"/>
                </mxCell>
                <mxCell id="318" value="program_session" style="swimlane;fontStyle=0;childLayout=stackLayout;horizontal=1;startSize=30;horizontalStack=0;resizeParent=1;resizeParentMax=0;resizeLast=0;collapsible=1;marginBottom=0;whiteSpace=wrap;html=1;swimlaneFillColor=default;" parent="1" vertex="1">
                    <mxGeometry x="-1085" y="520" width="140" height="90" as="geometry"/>
                </mxCell>
                <mxCell id="319" value="&lt;span style=&quot;color: rgb(240, 240, 240); text-align: center;&quot;&gt;user_id&amp;nbsp;&lt;/span&gt;&lt;font color=&quot;#ffffff&quot;&gt;(FK)&lt;/font&gt;" style="text;strokeColor=none;fillColor=none;align=left;verticalAlign=middle;spacingLeft=4;spacingRight=4;overflow=hidden;points=[[0,0.5],[1,0.5]];portConstraint=eastwest;rotatable=0;whiteSpace=wrap;html=1;fontColor=#5C5C5C;" parent="318" vertex="1">
                    <mxGeometry y="30" width="140" height="30" as="geometry"/>
                </mxCell>
                <mxCell id="320" value="&lt;div style=&quot;text-align: center;&quot;&gt;&lt;span style=&quot;background-color: initial;&quot;&gt;&lt;font color=&quot;#f0f0f0&quot;&gt;session_id&amp;nbsp;&lt;/font&gt;&lt;/span&gt;&lt;span style=&quot;color: rgb(255, 255, 255); background-color: initial;&quot;&gt;(FK)&lt;/span&gt;&lt;/div&gt;" style="text;strokeColor=none;fillColor=none;align=left;verticalAlign=middle;spacingLeft=4;spacingRight=4;overflow=hidden;points=[[0,0.5],[1,0.5]];portConstraint=eastwest;rotatable=0;whiteSpace=wrap;html=1;fontColor=#5C5C5C;" parent="318" vertex="1">
                    <mxGeometry y="60" width="140" height="30" as="geometry"/>
                </mxCell>
                <mxCell id="327" style="edgeStyle=none;html=1;" parent="1" source="323" target="258" edge="1">
                    <mxGeometry relative="1" as="geometry"/>
                </mxCell>
                <mxCell id="351" style="edgeStyle=none;html=1;" edge="1" parent="1" source="323" target="154">
                    <mxGeometry relative="1" as="geometry"/>
                </mxCell>
                <mxCell id="323" value="user_prog_exercise" style="swimlane;fontStyle=0;childLayout=stackLayout;horizontal=1;startSize=30;horizontalStack=0;resizeParent=1;resizeParentMax=0;resizeLast=0;collapsible=1;marginBottom=0;whiteSpace=wrap;html=1;swimlaneFillColor=default;" parent="1" vertex="1">
                    <mxGeometry x="-640" y="510" width="140" height="90" as="geometry"/>
                </mxCell>
                <mxCell id="325" value="&lt;div style=&quot;text-align: center;&quot;&gt;&lt;span style=&quot;color: rgb(240, 240, 240);&quot;&gt;user_id&amp;nbsp;&lt;/span&gt;&lt;font style=&quot;text-align: left;&quot; color=&quot;#ffffff&quot;&gt;(FK)&lt;/font&gt;&lt;br&gt;&lt;/div&gt;" style="text;strokeColor=none;fillColor=none;align=left;verticalAlign=middle;spacingLeft=4;spacingRight=4;overflow=hidden;points=[[0,0.5],[1,0.5]];portConstraint=eastwest;rotatable=0;whiteSpace=wrap;html=1;fontColor=#5C5C5C;" parent="323" vertex="1">
                    <mxGeometry y="30" width="140" height="30" as="geometry"/>
                </mxCell>
                <mxCell id="329" value="&lt;span style=&quot;color: rgb(240, 240, 240); text-align: center;&quot;&gt;prog_exercise_id (FK)&lt;/span&gt;" style="text;strokeColor=none;fillColor=none;align=left;verticalAlign=middle;spacingLeft=4;spacingRight=4;overflow=hidden;points=[[0,0.5],[1,0.5]];portConstraint=eastwest;rotatable=0;whiteSpace=wrap;html=1;fontColor=#5C5C5C;" parent="323" vertex="1">
                    <mxGeometry y="60" width="140" height="30" as="geometry"/>
                </mxCell>
                <mxCell id="331" value="set_performance_logs" style="swimlane;fontStyle=0;childLayout=stackLayout;horizontal=1;startSize=30;horizontalStack=0;resizeParent=1;resizeParentMax=0;resizeLast=0;collapsible=1;marginBottom=0;whiteSpace=wrap;html=1;swimlaneFillColor=default;" vertex="1" parent="1">
                    <mxGeometry x="-680" y="65" width="140" height="180" as="geometry"/>
                </mxCell>
                <mxCell id="332" value="&lt;font color=&quot;#ffffff&quot;&gt;id (PK)&lt;/font&gt;" style="text;strokeColor=none;fillColor=none;align=left;verticalAlign=middle;spacingLeft=4;spacingRight=4;overflow=hidden;points=[[0,0.5],[1,0.5]];portConstraint=eastwest;rotatable=0;whiteSpace=wrap;html=1;fontColor=#5C5C5C;" vertex="1" parent="331">
                    <mxGeometry y="30" width="140" height="30" as="geometry"/>
                </mxCell>
                <mxCell id="335" value="&lt;span style=&quot;color: rgb(240, 240, 240); text-align: center;&quot;&gt;prog_ex_set_&lt;/span&gt;&lt;font color=&quot;#ffffff&quot;&gt;id (PK)&lt;/font&gt;" style="text;strokeColor=none;fillColor=none;align=left;verticalAlign=middle;spacingLeft=4;spacingRight=4;overflow=hidden;points=[[0,0.5],[1,0.5]];portConstraint=eastwest;rotatable=0;whiteSpace=wrap;html=1;fontColor=#5C5C5C;" vertex="1" parent="331">
                    <mxGeometry y="60" width="140" height="30" as="geometry"/>
                </mxCell>
                <mxCell id="333" value="&lt;span style=&quot;color: rgb(255, 255, 255);&quot;&gt;weight&lt;/span&gt;" style="text;strokeColor=none;fillColor=none;align=left;verticalAlign=middle;spacingLeft=4;spacingRight=4;overflow=hidden;points=[[0,0.5],[1,0.5]];portConstraint=eastwest;rotatable=0;whiteSpace=wrap;html=1;fontColor=#5C5C5C;" vertex="1" parent="331">
                    <mxGeometry y="90" width="140" height="30" as="geometry"/>
                </mxCell>
                <mxCell id="334" value="&lt;span style=&quot;color: rgb(255, 255, 255);&quot;&gt;duration&lt;/span&gt;" style="text;strokeColor=none;fillColor=none;align=left;verticalAlign=middle;spacingLeft=4;spacingRight=4;overflow=hidden;points=[[0,0.5],[1,0.5]];portConstraint=eastwest;rotatable=0;whiteSpace=wrap;html=1;fontColor=#5C5C5C;" vertex="1" parent="331">
                    <mxGeometry y="120" width="140" height="30" as="geometry"/>
                </mxCell>
                <mxCell id="353" value="&lt;span style=&quot;color: rgb(255, 255, 255);&quot;&gt;achieve_at&lt;/span&gt;" style="text;strokeColor=none;fillColor=none;align=left;verticalAlign=middle;spacingLeft=4;spacingRight=4;overflow=hidden;points=[[0,0.5],[1,0.5]];portConstraint=eastwest;rotatable=0;whiteSpace=wrap;html=1;fontColor=#5C5C5C;" vertex="1" parent="331">
                    <mxGeometry y="150" width="140" height="30" as="geometry"/>
                </mxCell>
                <mxCell id="349" style="edgeStyle=none;html=1;entryX=0.5;entryY=0;entryDx=0;entryDy=0;" edge="1" parent="1" source="339" target="154">
                    <mxGeometry relative="1" as="geometry"/>
                </mxCell>
                <mxCell id="339" value="prog_ex_set" style="swimlane;fontStyle=0;childLayout=stackLayout;horizontal=1;startSize=30;horizontalStack=0;resizeParent=1;resizeParentMax=0;resizeLast=0;collapsible=1;marginBottom=0;whiteSpace=wrap;html=1;swimlaneFillColor=default;" vertex="1" parent="1">
                    <mxGeometry x="-510" y="20" width="140" height="240" as="geometry"/>
                </mxCell>
                <mxCell id="340" value="&lt;font color=&quot;#ffffff&quot;&gt;id (PK)&lt;/font&gt;" style="text;strokeColor=none;fillColor=none;align=left;verticalAlign=middle;spacingLeft=4;spacingRight=4;overflow=hidden;points=[[0,0.5],[1,0.5]];portConstraint=eastwest;rotatable=0;whiteSpace=wrap;html=1;fontColor=#5C5C5C;" vertex="1" parent="339">
                    <mxGeometry y="30" width="140" height="30" as="geometry"/>
                </mxCell>
                <mxCell id="341" value="&lt;span style=&quot;color: rgb(240, 240, 240); text-align: center;&quot;&gt;prog_exercise_&lt;/span&gt;&lt;font color=&quot;#ffffff&quot;&gt;id (PK)&lt;/font&gt;" style="text;strokeColor=none;fillColor=none;align=left;verticalAlign=middle;spacingLeft=4;spacingRight=4;overflow=hidden;points=[[0,0.5],[1,0.5]];portConstraint=eastwest;rotatable=0;whiteSpace=wrap;html=1;fontColor=#5C5C5C;" vertex="1" parent="339">
                    <mxGeometry y="60" width="140" height="30" as="geometry"/>
                </mxCell>
                <mxCell id="342" value="&lt;span style=&quot;color: rgb(255, 255, 255);&quot;&gt;set_number&lt;/span&gt;" style="text;strokeColor=none;fillColor=none;align=left;verticalAlign=middle;spacingLeft=4;spacingRight=4;overflow=hidden;points=[[0,0.5],[1,0.5]];portConstraint=eastwest;rotatable=0;whiteSpace=wrap;html=1;fontColor=#5C5C5C;" vertex="1" parent="339">
                    <mxGeometry y="90" width="140" height="30" as="geometry"/>
                </mxCell>
                <mxCell id="346" value="&lt;span style=&quot;color: rgb(255, 255, 255);&quot;&gt;repetitions&lt;/span&gt;" style="text;strokeColor=none;fillColor=none;align=left;verticalAlign=middle;spacingLeft=4;spacingRight=4;overflow=hidden;points=[[0,0.5],[1,0.5]];portConstraint=eastwest;rotatable=0;whiteSpace=wrap;html=1;fontColor=#5C5C5C;" vertex="1" parent="339">
                    <mxGeometry y="120" width="140" height="30" as="geometry"/>
                </mxCell>
                <mxCell id="345" value="&lt;span style=&quot;color: rgb(255, 255, 255);&quot;&gt;weight&lt;/span&gt;" style="text;strokeColor=none;fillColor=none;align=left;verticalAlign=middle;spacingLeft=4;spacingRight=4;overflow=hidden;points=[[0,0.5],[1,0.5]];portConstraint=eastwest;rotatable=0;whiteSpace=wrap;html=1;fontColor=#5C5C5C;" vertex="1" parent="339">
                    <mxGeometry y="150" width="140" height="30" as="geometry"/>
                </mxCell>
                <mxCell id="348" value="&lt;font color=&quot;#ffffff&quot;&gt;rest_time&lt;/font&gt;" style="text;strokeColor=none;fillColor=none;align=left;verticalAlign=middle;spacingLeft=4;spacingRight=4;overflow=hidden;points=[[0,0.5],[1,0.5]];portConstraint=eastwest;rotatable=0;whiteSpace=wrap;html=1;fontColor=#5C5C5C;" vertex="1" parent="339">
                    <mxGeometry y="180" width="140" height="30" as="geometry"/>
                </mxCell>
                <mxCell id="343" value="&lt;span style=&quot;color: rgb(255, 255, 255);&quot;&gt;duration&lt;/span&gt;" style="text;strokeColor=none;fillColor=none;align=left;verticalAlign=middle;spacingLeft=4;spacingRight=4;overflow=hidden;points=[[0,0.5],[1,0.5]];portConstraint=eastwest;rotatable=0;whiteSpace=wrap;html=1;fontColor=#5C5C5C;" vertex="1" parent="339">
                    <mxGeometry y="210" width="140" height="30" as="geometry"/>
                </mxCell>
                <mxCell id="350" style="edgeStyle=none;html=1;" edge="1" parent="1" source="335" target="339">
                    <mxGeometry relative="1" as="geometry"/>
                </mxCell>
            </root>
        </mxGraphModel>
    </diagram>
</mxfile>